<svg width="42" height="42" viewBox="0 0 42 42" fill="none" xmlns="http://www.w3.org/2000/svg">
<path d="M10.5 0.388672H31.5C37.0842 0.388672 41.6113 4.91579 41.6113 10.5V31.5C41.6113 37.0842 37.0842 41.6113 31.5 41.6113H10.5C4.91579 41.6113 0.388672 37.0842 0.388672 31.5V10.5C0.388672 4.91579 4.91579 0.388672 10.5 0.388672Z" fill="#F1CCF9"/>
<path d="M10.5 0.388672H31.5C37.0842 0.388672 41.6113 4.91579 41.6113 10.5V31.5C41.6113 37.0842 37.0842 41.6113 31.5 41.6113H10.5C4.91579 41.6113 0.388672 37.0842 0.388672 31.5V10.5C0.388672 4.91579 4.91579 0.388672 10.5 0.388672Z" stroke="#EDBFF7" stroke-width="0.777778"/>
<path d="M26.25 14C27.2165 14 28 14.7835 28 15.75V26.25C28 27.2165 27.2165 28 26.25 28H15.75C14.7835 28 14 27.2165 14 26.25L14 15.75C14 14.7835 14.7835 14 15.75 14M19.25 14H22.75M19.25 17.5H22.75M19.25 21H22.75V22.75C22.75 23.7165 21.9665 24.5 21 24.5C20.0335 24.5 19.25 23.7165 19.25 22.75V21Z" stroke="#1A1C24" stroke-width="1.75" stroke-linecap="round" stroke-linejoin="round"/>
</svg>
