<svg width="42" height="42" viewBox="0 0 42 42" fill="none" xmlns="http://www.w3.org/2000/svg">
<path d="M10.5 0.388672H31.5C37.0842 0.388672 41.6113 4.91579 41.6113 10.5V31.5C41.6113 37.0842 37.0842 41.6113 31.5 41.6113H10.5C4.91579 41.6113 0.388672 37.0842 0.388672 31.5V10.5C0.388672 4.91579 4.91579 0.388672 10.5 0.388672Z" fill="#E2DAFB"/>
<path d="M10.5 0.388672H31.5C37.0842 0.388672 41.6113 4.91579 41.6113 10.5V31.5C41.6113 37.0842 37.0842 41.6113 31.5 41.6113H10.5C4.91579 41.6113 0.388672 37.0842 0.388672 31.5V10.5C0.388672 4.91579 4.91579 0.388672 10.5 0.388672Z" stroke="#DBD1FA" stroke-width="0.777778"/>
<path d="M24.0618 16.1875C24.0618 17.8789 22.6906 19.25 20.9993 19.25C19.3079 19.25 17.9368 17.8789 17.9368 16.1875C17.9368 14.4961 19.3079 13.125 20.9993 13.125C22.6906 13.125 24.0618 14.4961 24.0618 16.1875Z" stroke="#1A1C24" stroke-width="1.75" stroke-linejoin="round"/>
<path d="M20.9993 21.875C18.032 21.875 15.7808 23.6375 14.8589 26.13C14.5012 27.0972 15.3278 28 16.359 28H25.6395C26.6707 28 27.4973 27.0972 27.1396 26.13C26.2178 23.6375 23.9665 21.875 20.9993 21.875Z" stroke="#1A1C24" stroke-width="1.75" stroke-linejoin="round"/>
</svg>
