<svg width="42" height="42" viewBox="0 0 42 42" fill="none" xmlns="http://www.w3.org/2000/svg">
<path d="M10.5 0.388672H31.5C37.0842 0.388672 41.6113 4.91579 41.6113 10.5V31.5C41.6113 37.0842 37.0842 41.6113 31.5 41.6113H10.5C4.91579 41.6113 0.388672 37.0842 0.388672 31.5V10.5C0.388672 4.91579 4.91579 0.388672 10.5 0.388672Z" fill="#D6E0FF"/>
<path d="M10.5 0.388672H31.5C37.0842 0.388672 41.6113 4.91579 41.6113 10.5V31.5C41.6113 37.0842 37.0842 41.6113 31.5 41.6113H10.5C4.91579 41.6113 0.388672 37.0842 0.388672 31.5V10.5C0.388672 4.91579 4.91579 0.388672 10.5 0.388672Z" stroke="#C7D5FF" stroke-width="0.777778"/>
<path d="M18.375 17.5H23.625M18.375 21H21M27.5625 15.3125V26.6875C27.5625 27.654 26.779 28.4375 25.8125 28.4375H16.1875C15.221 28.4375 14.4375 27.654 14.4375 26.6875V15.3125C14.4375 14.346 15.221 13.5625 16.1875 13.5625H25.8125C26.779 13.5625 27.5625 14.346 27.5625 15.3125Z" stroke="#1A1C24" stroke-width="1.75" stroke-linecap="round" stroke-linejoin="round"/>
</svg>
