<svg width="32" height="33" viewBox="0 0 32 33" fill="none" xmlns="http://www.w3.org/2000/svg">
<g clip-path="url(#clip0_1231_2101)">
<path d="M16 32.5C24.8366 32.5 32 25.3366 32 16.5C32 7.66344 24.8366 0.5 16 0.5C7.16344 0.5 0 7.66344 0 16.5C0 25.3366 7.16344 32.5 16 32.5Z" fill="#F0F0F0"/>
<path d="M3.30758 6.76074C2.05077 8.39593 1.10308 10.2806 0.55127 12.3281H8.8749L3.30758 6.76074Z" fill="#0D4979"/>
<path d="M31.449 12.328C30.8972 10.2806 29.9494 8.39593 28.6927 6.76074L23.1255 12.328H31.449Z" fill="#0D4979"/>
<path d="M0.55127 20.6748C1.10314 22.7222 2.05083 24.6069 3.30758 26.242L8.87471 20.6748H0.55127Z" fill="#0D4979"/>
<path d="M25.7413 3.80911C24.1061 2.5523 22.2215 1.60461 20.1741 1.05273V9.3763L25.7413 3.80911Z" fill="#0D4979"/>
<path d="M6.25903 29.1931C7.89422 30.4499 9.77891 31.3976 11.8263 31.9495V23.626L6.25903 29.1931Z" fill="#0D4979"/>
<path d="M11.8262 1.05273C9.77885 1.60461 7.89416 2.5523 6.25903 3.80905L11.8262 9.37623V1.05273Z" fill="#0D4979"/>
<path d="M20.1741 31.9495C22.2214 31.3976 24.1061 30.4499 25.7413 29.1932L20.1741 23.626V31.9495Z" fill="#0D4979"/>
<path d="M23.1255 20.6748L28.6927 26.2421C29.9494 24.6069 30.8972 22.7222 31.449 20.6748H23.1255Z" fill="#0D4979"/>
<path d="M31.8646 14.4131H18.0871H18.087V0.635438C17.4038 0.5465 16.7073 0.5 16 0.5C15.2926 0.5 14.5962 0.5465 13.9131 0.635438V14.4129V14.413H0.135438C0.0465 15.0962 0 15.7927 0 16.5C0 17.2074 0.0465 17.9038 0.135438 18.5869H13.9129H13.913V32.3646C14.5962 32.4535 15.2926 32.5 16 32.5C16.7073 32.5 17.4038 32.4536 18.0869 32.3646V18.5871V18.587H31.8646C31.9535 17.9038 32 17.2074 32 16.5C32 15.7927 31.9535 15.0962 31.8646 14.4131Z" fill="#D80027"/>
<path d="M20.1738 20.6739L27.3136 27.8136C27.642 27.4854 27.9552 27.1422 28.2541 26.7865L22.1415 20.6738H20.1738V20.6739Z" fill="#D80027"/>
<path d="M11.8261 20.6738H11.826L4.68628 27.8135C5.01453 28.1419 5.35772 28.4551 5.71347 28.754L11.8261 22.6413V20.6738Z" fill="#D80027"/>
<path d="M11.8261 12.3255V12.3254L4.68635 5.18555C4.35797 5.5138 4.04472 5.85698 3.74585 6.21273L9.85854 12.3254H11.8261V12.3255Z" fill="#D80027"/>
<path d="M20.1738 12.3274L27.3136 5.18751C26.9854 4.85913 26.6422 4.54588 26.2865 4.24707L20.1738 10.3598V12.3274Z" fill="#D80027"/>
</g>
<defs>
<clipPath id="clip0_1231_2101">
<rect width="32" height="32" fill="white" transform="translate(0 0.5)"/>
</clipPath>
</defs>
</svg>
